<svg width="16" height="23" viewBox="0 0 16 23" fill="none" xmlns="http://www.w3.org/2000/svg">
<g clip-path="url(#clip0)">
<path d="M11.0327 11.5L15.5814 7.00467C16.1395 6.45303 16.1395 5.55863 15.5814 5.00654L14.5705 4.00748C14.0123 3.45584 13.1073 3.45584 12.5486 4.00748L8 8.50281L3.45136 4.00748C2.89318 3.45584 1.98818 3.45584 1.42955 4.00748L0.418636 5.00654C-0.139545 5.55818 -0.139545 6.45258 0.418636 7.00467L4.96727 11.5L0.418636 15.9953C-0.139545 16.547 -0.139545 17.4414 0.418636 17.9935L1.42955 18.9925C1.98773 19.5442 2.89318 19.5442 3.45136 18.9925L8 14.4972L12.5486 18.9925C13.1068 19.5442 14.0123 19.5442 14.5705 18.9925L15.5814 17.9935C16.1395 17.4418 16.1395 16.5474 15.5814 15.9953L11.0327 11.5Z" fill="white"/>
</g>
<defs>
<clipPath id="clip0">
<rect width="16" height="23" fill="white"/>
</clipPath>
</defs>
</svg>
